<svg width="512" height="512" viewBox="0 0 512 512" fill="none" xmlns="http://www.w3.org/2000/svg">
<path d="M387.317 124H348.69V384.414H387.317V287.31C387.317 287.31 384.245 233.462 432.09 233.462C475.985 233.462 472.474 287.31 472.474 287.31V384.414H511.979V287.31C511.979 287.31 513.856 237.352 482.13 211.393C437.358 174.759 387.317 206.979 387.317 206.979V124Z" fill="white"/>
<path fill-rule="evenodd" clip-rule="evenodd" d="M326.348 290.261C326.348 344.088 282.712 387.724 228.884 387.724C181.546 387.724 142.09 353.975 133.265 309.224H0V270.415H133.443C142.609 226.104 181.857 192.797 228.884 192.797C282.712 192.797 326.348 236.433 326.348 290.261ZM286.657 290.261C286.657 322.168 260.791 348.033 228.884 348.033C196.978 348.033 171.112 322.168 171.112 290.261C171.112 258.354 196.978 232.488 228.884 232.488C260.791 232.488 286.657 258.354 286.657 290.261Z" fill="white"/>
</svg>
