<svg width="512" height="512" viewBox="0 0 512 512" fill="none" xmlns="http://www.w3.org/2000/svg">
    <path d="M336.816 428H287V127H336.816V236.836C352.176 218.809 379.574 203.717 417.35 203.717C477.959 203.717 512 246.478 512 308.104V428H462.184V316.487C462.184 277.5 442.258 249.831 401.991 249.831C359.648 249.831 336.816 276.662 336.816 317.326V428Z" fill="white"/>
    <path fill-rule="evenodd" clip-rule="evenodd" d="M0 316.501C0 248.135 55.7311 202 125.709 202C195.269 202 251 248.135 251 316.501C251 384.865 195.269 431 125.709 431C55.7311 431 0 384.865 0 316.501ZM48.1885 316.501C48.1885 361.378 82.5491 387.801 125.709 387.801C168.45 387.801 202.811 361.378 202.811 316.501C202.811 271.623 168.45 245.2 125.709 245.2C82.5491 245.2 48.1885 271.623 48.1885 316.501Z" fill="white"/>
</svg>
