<svg width="512" height="512" viewBox="0 0 512 512" fill="none" xmlns="http://www.w3.org/2000/svg">
	<rect width="512" height="512" fill="#E32929"/>
	<path d="M390.47 160H368V311H390.47V254.695C390.47 254.695 388.683 223.471 416.515 223.471C442.05 223.471 440.007 254.695 440.007 254.695V311H462.988V254.695C462.988 254.695 464.08 225.727 445.624 210.675C419.579 189.432 390.47 208.115 390.47 208.115V160Z" fill="white"/>
	<path fill-rule="evenodd" clip-rule="evenodd" d="M354.945 256.573C354.945 287.903 329.547 313.3 298.218 313.3C270.665 313.3 247.701 293.657 242.564 267.611H165V245.023H242.668C248.003 219.232 270.847 199.847 298.218 199.847C329.547 199.847 354.945 225.244 354.945 256.573ZM331.843 256.573C331.843 275.144 316.789 290.199 298.218 290.199C279.647 290.199 264.593 275.144 264.593 256.573C264.593 238.003 279.647 222.948 298.218 222.948C316.789 222.948 331.843 238.003 331.843 256.573Z" fill="white"/>
	<rect y="245" width="138" height="22" fill="white"/>
</svg>
