<svg width="512" height="512" viewBox="0 0 512 512" fill="none" xmlns="http://www.w3.org/2000/svg">
    <rect width="512" height="512" fill="#FF3900"/>
    <g clip-path="url(#clip0_1_9)">
        <path d="M170.229 245.123H149.273V120H170.229V165.658C176.691 158.164 188.216 151.891 204.108 151.891C229.604 151.891 243.924 169.666 243.924 195.283V245.123H222.968V198.768C222.968 182.562 214.586 171.06 197.646 171.06C179.834 171.06 170.229 182.213 170.229 199.117V245.123Z" fill="white"/>
        <path fill-rule="evenodd" clip-rule="evenodd" d="M30 199.466C30 171.06 53.226 151.891 82.3895 151.891C111.379 151.891 134.605 171.06 134.605 199.466C134.605 227.871 111.379 247.04 82.3895 247.04C53.226 247.04 30 227.871 30 199.466ZM50.0826 199.466C50.0826 218.112 64.4024 229.091 82.3895 229.091C100.202 229.091 114.522 218.112 114.522 199.466C114.522 180.819 100.202 169.841 82.3895 169.841C64.4024 169.841 50.0826 180.819 50.0826 199.466Z" fill="white"/>
        <path fill-rule="evenodd" clip-rule="evenodd" d="M149.327 377.581V389.083H170.282V263.96H149.327V309.269C142.69 302.124 130.467 295.851 113.702 295.851C82.0935 295.851 63.4078 317.46 63.4078 343.425C63.4078 369.391 82.0935 391 113.702 391C130.467 391 142.69 384.726 149.327 377.581ZM150.374 344.122C150.374 360.852 135.705 373.573 116.671 373.573C98.6832 373.573 83.3157 362.769 83.3157 343.425C83.3157 324.082 98.6832 313.277 116.671 313.277C135.705 313.277 150.374 325.998 150.374 342.728V344.122Z" fill="white"/>
        <path fill-rule="evenodd" clip-rule="evenodd" d="M204.859 349.524C207.654 364.163 220.751 373.225 237.865 373.225C253.058 373.225 264.234 365.557 268.6 354.404L285.365 363.292C279.777 377.581 262.488 391 237.865 391C207.304 391 184.951 371.656 184.951 343.425C184.951 316.588 206.606 295.851 237.865 295.851C268.076 295.851 287.111 315.891 287.111 342.205V349.524H204.859ZM266.854 333.841C265.457 324.256 254.106 313.277 236.817 313.277C222.323 313.277 209.749 320.422 205.733 333.841H266.854Z" fill="white"/>
        <path fill-rule="evenodd" clip-rule="evenodd" d="M333.912 391C351.026 391 365.172 385.075 373.379 376.71C376.348 385.772 385.254 393.091 404.813 389.083V372.876C393.636 375.316 391.191 373.051 391.191 367.823V329.31C391.191 307.526 375.125 295.851 346.835 295.851C324.657 295.851 304.574 305.958 298.811 321.293L316.1 328.961C319.592 320.073 331.992 313.625 346.136 313.625C363.251 313.625 370.934 320.248 370.934 328.961V329.658L331.118 334.363C309.114 336.977 295.842 346.562 295.842 362.595C295.842 381.415 312.782 391 333.912 391ZM370.934 353.707C370.934 367.125 351.376 374.096 335.659 374.096C323.609 374.096 316.275 370.088 316.275 362.42C316.275 354.752 322.387 351.79 334.611 350.396L370.934 346.039V353.707Z" fill="white"/>
        <path d="M471.697 297.07C475.888 297.07 479.381 297.767 482 298.464V319.377L481.567 319.268C477.671 318.295 475.723 317.808 471.173 317.808C450.217 317.808 436.596 326.696 436.596 348.479V389.083H415.64V297.593H436.596V314.148C444.454 301.776 456.853 297.07 471.697 297.07Z" fill="white"/>
    </g>
    <defs>
        <clipPath id="clip0_1_9">
            <rect width="452" height="271" fill="white" transform="translate(30 120)"/>
        </clipPath>
    </defs>
</svg>
